<svg width="17" height="19" viewBox="0 0 17 19" fill="none" xmlns="http://www.w3.org/2000/svg">
<path d="M9.59994 1.01345C8.54179 1.07454 7.49937 1.30431 6.53273 1.68946C6.12663 1.85017 5.36448 2.23001 5.12425 2.39071C5.09279 2.41063 4.96982 2.49298 4.85113 2.57134C4.59517 2.73868 4.32778 2.93657 4.10614 3.11853C3.87306 3.30978 3.56991 3.5754 3.53702 3.61657C3.52129 3.63649 3.44694 3.71485 3.37258 3.79056C1.62377 5.5729 0.777251 7.97814 1.05037 10.3887C1.26915 12.3264 2.1886 14.1194 3.6743 15.5006C4.6252 16.3838 5.71767 17.0359 6.98459 17.4742C7.56514 17.6748 8.22148 17.8302 8.84922 17.9125C9.33683 17.9763 9.57849 17.9909 10.1362 17.9909C10.671 17.9922 10.8783 17.9802 11.2944 17.9311C11.416 17.9165 11.5547 17.9006 11.6018 17.8979C11.649 17.8939 11.7749 17.8727 11.8807 17.8514C12.8916 17.6389 13.4493 17.4623 14.2043 17.1156C14.7563 16.862 15.1652 16.6295 15.6343 16.3028C16.0075 16.0425 16.0418 16.0067 15.9732 15.9429C15.9488 15.9203 15.9117 15.9163 15.64 15.9097C13.149 15.842 10.7982 14.7954 9.14093 13.0184C7.44789 11.2015 6.68574 8.7604 7.06324 6.36446C7.37496 4.38024 8.44884 2.57399 10.1004 1.25251C10.2663 1.1197 10.2649 1.12235 10.2649 1.0772C10.2649 1.00813 10.2334 0.998838 9.99889 1.00017C9.88164 1.00149 9.70289 1.00813 9.59994 1.01345Z" fill="white" stroke="black"/>
</svg>
