<svg width="260" height="366" viewBox="0 0 260 366" fill="none" xmlns="http://www.w3.org/2000/svg">
<path d="M129.405 365.758L23.5821 336.381L0 71.8801H259.127L235.52 336.34L129.405 365.758Z" fill="#264DE4"/>
<path d="M215.31 319.5L235.483 93.5071H129.563V343.272L215.31 319.5Z" fill="#2965F1"/>
<path d="M54.061 191.607L56.9685 224.046H129.563V191.607H54.061Z" fill="#EBEBEB"/>
<path d="M48.2192 125.947L51.1682 158.388H129.563V125.947H48.2192Z" fill="#EBEBEB"/>
<path d="M129.563 275.857L129.421 275.895L93.2927 266.139L90.9831 240.267H58.4185L62.9633 291.202L129.414 309.649L129.563 309.608V275.857Z" fill="#EBEBEB"/>
<path d="M60.9834 0H100.274V16.4306H77.414V32.8611H100.274V49.2917H60.9834V0Z" fill="black"/>
<path d="M108.132 0H147.423V14.2874H124.563V17.1449H147.423V50.006H108.132V35.0042H130.992V32.1467H108.132V0Z" fill="black"/>
<path d="M155.281 0H194.571V14.2874H171.711V17.1449H194.571V50.006H155.281V35.0042H178.141V32.1467H155.281V0Z" fill="black"/>
<path d="M204.857 191.607L210.714 125.947H129.451V158.388H175.162L172.211 191.607H129.451V224.046H169.397L165.632 266.118L129.451 275.884V309.634L195.955 291.202L196.443 285.722L204.066 200.318L204.857 191.607Z" fill="white"/>
</svg>
