<svg width="374" height="265" viewBox="0 0 374 265" fill="none" xmlns="http://www.w3.org/2000/svg">
<path opacity="0.5" d="M72.9417 48.5668L41.5333 161.439C36.4463 179.72 47.1422 198.664 65.4233 203.751L252.043 255.681C270.324 260.768 289.268 250.072 294.355 231.791L325.763 118.918C330.85 100.637 320.154 81.6935 301.873 76.6065L115.253 24.6768C96.9722 19.5898 78.0287 30.2857 72.9417 48.5668Z" fill="#AAAAAA"/>
<path opacity="0.12" d="M316.516 54.2876H124.105C92.6154 54.2876 67.0879 79.8151 67.0879 111.305C67.0879 142.795 92.6154 168.322 124.105 168.322H316.516C348.005 168.322 373.533 142.795 373.533 111.305C373.533 79.8151 348.005 54.2876 316.516 54.2876Z" fill="#AAAAAA"/>
<path d="M26.4601 219.531C29.6318 219.531 32.203 216.959 32.203 213.788C32.203 210.616 29.6318 208.045 26.4601 208.045C23.2885 208.045 20.7173 210.616 20.7173 213.788C20.7173 216.959 23.2885 219.531 26.4601 219.531Z" fill="#9FE791"/>
<path opacity="0.12" d="M240.279 113.855H57.0172C25.5275 113.855 0 139.383 0 170.872C0 202.362 25.5275 227.89 57.0172 227.89H240.279C271.768 227.89 297.296 202.362 297.296 170.872C297.296 139.383 271.768 113.855 240.279 113.855Z" fill="#AAAAAA"/>
<path d="M28.8625 61.0016C32.0342 61.0016 34.6053 58.4304 34.6053 55.2587C34.6053 52.087 32.0342 49.5159 28.8625 49.5159C25.6908 49.5159 23.1196 52.087 23.1196 55.2587C23.1196 58.4304 25.6908 61.0016 28.8625 61.0016Z" fill="#2BC3F7"/>
<g opacity="0.15">
<path d="M352.997 219.827L342.087 228.861C341.163 229.786 340.643 231.041 340.643 232.349C340.643 233.657 341.163 234.912 342.087 235.838C343.027 236.735 344.276 237.236 345.576 237.236C346.875 237.236 348.124 236.735 349.064 235.838L359.974 226.804C360.898 225.878 361.418 224.624 361.418 223.315C361.418 222.007 360.898 220.752 359.974 219.827C359.034 218.93 357.785 218.429 356.485 218.429C355.186 218.429 353.937 218.93 352.997 219.827V219.827Z" fill="#32CAF8"/>
<path d="M359.052 229.799L350.018 218.889C349.093 217.964 347.838 217.445 346.53 217.445C345.222 217.445 343.967 217.964 343.041 218.889C342.144 219.829 341.644 221.078 341.644 222.377C341.644 223.677 342.144 224.926 343.041 225.866L352.075 236.776C353.001 237.7 354.256 238.219 355.564 238.219C356.872 238.219 358.127 237.7 359.052 236.776C359.95 235.836 360.45 234.586 360.45 233.287C360.45 231.988 359.95 230.738 359.052 229.799V229.799Z" fill="#32CAF8"/>
</g>
<path d="M306.774 68.2581L306.922 77.687C306.954 77.9373 307.076 78.1675 307.265 78.3344C307.454 78.5012 307.698 78.5933 307.95 78.5933C308.203 78.5933 308.447 78.5012 308.636 78.3344C308.825 78.1675 308.947 77.9373 308.979 77.687L308.831 68.2581C308.799 68.0078 308.677 67.7776 308.488 67.6107C308.298 67.4439 308.055 67.3518 307.802 67.3518C307.55 67.3518 307.306 67.4439 307.117 67.6107C306.928 67.7776 306.806 68.0078 306.774 68.2581V68.2581Z" fill="white"/>
<path d="M300.208 51.7041H307.942L306.922 50.6838V57.7102C306.954 57.9606 307.076 58.1908 307.265 58.3576C307.454 58.5245 307.698 58.6165 307.95 58.6165C308.203 58.6165 308.446 58.5245 308.636 58.3576C308.825 58.1908 308.947 57.9606 308.979 57.7102V50.7168C308.975 50.4475 308.866 50.1905 308.675 50C308.485 49.8096 308.228 49.7008 307.959 49.6965H300.225C299.974 49.7283 299.744 49.8502 299.577 50.0396C299.41 50.2289 299.318 50.4726 299.318 50.725C299.318 50.9774 299.41 51.2211 299.577 51.4104C299.744 51.5997 299.974 51.7217 300.225 51.7534L300.208 51.7041Z" fill="white"/>
<path d="M64.7129 33.7479L33.3045 146.62C28.2176 164.901 38.9135 183.845 57.1946 188.932L243.815 240.862C262.096 245.949 281.039 235.253 286.126 216.972L317.535 104.099C322.622 85.8182 311.926 66.8746 293.645 61.7877L107.025 9.85792C88.7434 4.77095 69.7999 15.4669 64.7129 33.7479Z" fill="#E6F4FF"/>
<path d="M34.194 166.249L32.1536 161.757L131.642 116.538L132.53 119.088C132.645 119.434 144.625 153.118 168.584 158.893C182.044 162.185 197.002 155.997 213.013 140.661L216.419 144.232C199.108 160.802 182.653 167.351 167.415 163.682C144.641 158.186 132.25 131.66 128.828 123.235L34.194 166.249Z" fill="#B3C9E8"/>
<path d="M214.414 145.536L218.37 142.583L280.264 225.5L276.308 228.453L214.414 145.536Z" fill="#B3C9E8"/>
<path d="M290.796 62.1202L109.97 11.7838C92.2477 6.84726 78.0139 11.0433 73.2584 19.5178L70.5762 26.2479C73.1432 17.0495 89.6971 16.0622 107.419 20.9823L288.229 71.3187C305.951 76.2552 318.227 87.7739 315.676 96.9065L318.243 87.6916C320.876 78.5096 308.518 67.0403 290.796 62.1202V62.1202Z" fill="white"/>
<path d="M64.9007 33.1007L33.4923 145.973C28.4053 164.254 39.1012 183.198 57.3823 188.285L244.002 240.214C262.283 245.301 281.227 234.606 286.314 216.324L317.722 103.452C322.809 85.1709 312.113 66.2274 293.832 61.1404L107.212 9.21071C88.9312 4.12373 69.9877 14.8196 64.9007 33.1007Z" stroke="#2E576D" stroke-width="6.58207" stroke-miterlimit="10" stroke-linecap="round"/>
<path d="M34.0952 159.502L130.523 115.271" stroke="#2E576D" stroke-width="6.58207" stroke-miterlimit="10" stroke-linecap="round"/>
<path d="M218.656 140.447L280.824 226.245" stroke="#2E576D" stroke-width="6.58207" stroke-miterlimit="10" stroke-linecap="round"/>
<path d="M70.5596 24.2405L148.096 142.01C152.243 149.006 158.932 154.129 166.767 156.31C174.601 158.49 182.975 157.558 190.139 153.71L318.638 92.3649" stroke="#2E576D" stroke-width="6.58207" stroke-miterlimit="10" stroke-linecap="round"/>
</svg>
