<svg width="164" height="165" viewBox="0 0 164 165" fill="none" xmlns="http://www.w3.org/2000/svg">
<path d="M163.18 0H0.0478208C0.0214101 0 0 0.0214101 0 0.0478208V163.18C0 163.207 0.0214101 163.228 0.0478208 163.228H163.18C163.207 163.228 163.228 163.207 163.228 163.18V0.0478208C163.228 0.0214101 163.207 0 163.18 0Z" fill="#1B1817"/>
<path d="M106.8 159.084C111.263 159.084 110.625 164.504 110.625 164.504H52.6028C52.6028 164.504 51.9652 159.084 56.4284 159.084C60.5729 159.084 61.5293 157.171 61.5293 155.258L61.2105 139.318C38.5753 144.419 33.7933 130.391 33.7933 130.391C29.9676 120.827 24.8667 118.596 24.8667 118.596C17.2154 113.495 25.1855 113.495 25.1855 113.495C33.4745 114.132 37.9377 121.784 37.9377 121.784C44.9514 134.217 56.7472 130.71 61.5293 128.797C62.1669 123.378 64.3986 119.871 66.6302 117.639C48.4583 115.726 29.6488 108.713 29.6488 77.4698C29.6488 68.5433 32.8369 61.2107 37.9377 55.4722C36.9813 53.5594 34.4309 45.2705 38.8942 34.1123C38.8942 34.1123 45.5891 31.8807 61.2105 42.4012C74.6003 38.5756 88.6277 38.5756 102.018 42.4012C117.639 31.8807 124.334 34.1123 124.334 34.1123C128.797 45.2705 126.247 53.5594 125.29 55.4722C130.391 61.2107 133.579 68.5433 133.579 77.4698C133.579 108.713 114.451 115.726 96.2791 117.639C99.4671 120.19 102.018 125.291 102.018 132.942L101.699 155.258C101.699 157.171 102.655 159.084 106.8 159.084Z" fill="white"/>
</svg>
