<svg width="938" height="1046" viewBox="0 0 938 1046" fill="none" xmlns="http://www.w3.org/2000/svg">
<path d="M843.939 0H94.0613C41.7615 0 0 41.805 0 94.0613V951.108C0 1003.28 41.7615 1045.13 94.0613 1045.13H843.939C896.195 1045.13 937.956 1003.28 937.956 951.108V94.0613C938 41.805 896.239 0 843.939 0ZM885.744 951.108C885.744 974.579 867.411 992.913 843.939 992.913H94.0613C70.546 992.913 52.2563 974.579 52.2563 951.108V94.0613C52.2563 70.546 70.546 52.2127 94.0613 52.2127H843.939C867.411 52.2127 885.744 70.546 885.744 94.0613V951.108ZM235.153 888.313L352.73 783.844L235.153 679.332V888.313ZM658.429 465.081C637.57 444.178 598.378 418.05 533.057 418.05C462.468 418.05 389.309 436.383 337.096 454.63V156.769H232.584V608.786L305.743 574.819C305.743 574.819 425.932 519.95 530.445 519.95C582.701 519.95 595.765 548.691 595.765 574.819V888.357H700.278V574.819C702.847 567.024 702.847 509.455 658.429 465.081V465.081ZM519.95 326.602H624.462C671.493 271.733 695.008 216.82 702.847 156.769H598.378C587.883 216.82 561.755 271.733 519.95 326.602V326.602Z" fill="black"/>
</svg>
