<svg width="260" height="352" viewBox="0 0 260 352" fill="none" xmlns="http://www.w3.org/2000/svg">
<path d="M83.4495 271.713C83.4495 271.713 70.0318 279.521 93.0111 282.155C120.854 285.336 135.083 284.88 165.757 279.081C165.757 279.081 173.838 284.134 185.103 288.514C116.314 317.984 29.4267 286.805 83.4495 271.713ZM75.0391 233.25C75.0391 233.25 59.9861 244.393 82.9851 246.774C112.728 249.845 136.211 250.096 176.867 242.271C176.867 242.271 182.477 247.97 191.312 251.084C108.16 275.403 15.5446 252.998 75.0391 233.25V233.25Z" fill="#0074BD"/>
<path d="M145.894 167.993C162.853 187.513 141.447 205.063 141.447 205.063C141.447 205.063 184.481 182.852 164.722 155.026C146.26 129.088 132.108 116.205 208.73 71.7665C208.73 71.7693 88.4545 101.799 145.894 167.993V167.993Z" fill="#EA2D2E"/>
<path d="M236.868 300.166C236.868 300.166 246.801 308.357 225.925 314.687C186.232 326.712 60.6843 330.337 25.8156 315.169C13.2874 309.714 36.7902 302.151 44.1844 300.555C51.8939 298.886 56.2961 299.19 56.2961 299.19C42.3549 289.375 -33.8112 318.47 17.6136 326.816C157.845 349.547 273.237 316.579 236.868 300.166V300.166ZM89.9094 193.39C89.9094 193.39 26.0549 208.559 67.2988 214.073C84.7163 216.403 119.422 215.868 151.771 213.155C178.201 210.934 204.724 206.191 204.724 206.191C204.724 206.191 195.413 210.186 188.669 214.785C123.813 231.845 -1.44766 223.899 34.6172 206.459C65.1062 191.713 89.9094 193.39 89.9094 193.39V193.39ZM204.46 257.416C270.383 223.17 239.9 190.257 218.623 194.691C213.422 195.774 211.088 196.717 211.088 196.717C211.088 196.717 213.025 193.68 216.718 192.374C258.806 177.583 291.17 236.01 203.142 259.153C203.142 259.147 204.153 258.233 204.46 257.416V257.416Z" fill="#0074BD"/>
<path d="M164.721 0C164.721 0 201.222 36.5237 130.092 92.6687C73.0488 137.721 117.085 163.402 130.072 192.757C96.7712 162.716 72.3451 136.266 88.7296 111.651C112.79 75.5271 179.445 58.0056 164.721 0V0Z" fill="#EA2D2E"/>
<path d="M96.389 350.246C159.652 354.291 256.827 347.994 259.127 318.057C259.127 318.057 254.705 329.406 206.838 338.41C152.835 348.577 86.2166 347.392 46.7178 340.87C46.7178 340.873 54.8101 347.572 96.389 350.246V350.246Z" fill="#0074BD"/>
</svg>
