<svg width="260" height="260" viewBox="0 0 260 260" fill="none" xmlns="http://www.w3.org/2000/svg">
<path d="M0 0H259.127V259.127H0V0Z" fill="#F7DF1E"/>
<path d="M68.1342 216.545L87.9644 204.545C91.79 211.327 95.2701 217.067 103.618 217.067C111.619 217.067 116.664 213.936 116.664 201.762V118.964H141.015V202.106C141.015 227.328 126.231 238.808 104.662 238.808C85.1815 238.808 73.8737 228.719 68.1338 216.543" fill="black"/>
<path d="M154.242 213.936L174.07 202.456C179.289 210.98 186.073 217.241 198.075 217.241C208.164 217.241 214.599 212.197 214.599 205.239C214.599 196.89 207.989 193.932 196.857 189.064L190.77 186.452C173.201 178.974 161.547 169.582 161.547 149.752C161.547 131.488 175.462 117.572 197.205 117.572C212.686 117.572 223.819 122.965 231.819 137.054L212.859 149.23C208.684 141.751 204.163 138.794 197.206 138.794C190.074 138.794 185.551 143.316 185.551 149.23C185.551 156.535 190.074 159.493 200.51 164.016L206.597 166.625C227.296 175.496 238.951 184.54 238.951 204.891C238.951 226.809 221.731 238.81 198.597 238.81C175.985 238.81 161.373 228.026 154.243 213.936" fill="black"/>
</svg>
