<svg width="144" height="144" viewBox="0 0 144 144" fill="none" xmlns="http://www.w3.org/2000/svg">
<path d="M132.873 0.000543253H10.5828C7.80814 -0.027695 5.13557 1.04594 3.15155 2.98588C1.16753 4.92581 0.0341135 7.57358 0 10.3482V133.133C0.0402828 135.903 1.17641 138.545 3.15976 140.48C5.14311 142.415 7.81216 143.485 10.5828 143.457H132.873C135.648 143.479 138.319 142.401 140.302 140.46C142.285 138.519 143.419 135.872 143.456 133.097V10.3129C143.407 7.54644 142.267 4.91129 140.286 2.98026C138.304 1.04924 135.64 -0.0215886 132.873 0.000543253V0.000543253Z" fill="#0076B2"/>
<path d="M21.2362 53.7731H42.5312V122.291H21.2362V53.7731ZM31.8896 19.6729C34.332 19.6729 36.7196 20.3973 38.7502 21.7545C40.7809 23.1116 42.3634 25.0406 43.2975 27.2974C44.2317 29.5541 44.4755 32.0372 43.9981 34.4325C43.5208 36.8279 42.3437 39.0278 40.6158 40.754C38.8879 42.4803 36.6869 43.6552 34.2911 44.1303C31.8953 44.6054 29.4124 44.3592 27.1566 43.4229C24.9008 42.4866 22.9733 40.9023 21.618 38.8703C20.2628 36.8384 19.5406 34.4502 19.543 32.0077C19.5461 28.7352 20.8483 25.5978 23.1634 23.2849C25.4785 20.972 28.6171 19.6729 31.8896 19.6729Z" fill="white"/>
<path d="M55.8896 53.7731H76.3027V63.18H76.585C79.4306 57.7946 86.3682 52.1151 96.7276 52.1151C118.293 52.0681 122.291 66.2608 122.291 84.6632V122.291H100.996V88.9551C100.996 81.018 100.855 70.7997 89.9311 70.7997C79.0073 70.7997 77.1494 79.4541 77.1494 88.4377V122.291H55.8896V53.7731Z" fill="white"/>
</svg>
