<svg width="938" height="954" viewBox="0 0 938 954" fill="none" xmlns="http://www.w3.org/2000/svg">
<path fill-rule="evenodd" clip-rule="evenodd" d="M651.158 759.763C652.481 757.217 653.75 754.969 654.831 752.643C655.513 751.155 656.562 750.857 658.043 750.896C666.917 751.147 675.792 751.421 684.674 751.507C692.217 751.585 699.776 751.444 707.326 751.358C715.833 751.256 724.339 750.81 732.838 751.053C744.156 751.382 755.185 753.598 765.422 758.635C777.649 764.658 786.9 773.83 793.205 785.916C797.231 793.632 799.565 801.817 800.497 810.511C801.844 823.106 800.959 835.412 796.965 847.458C792.014 862.388 782.615 873.816 769.558 882.377C759.508 888.964 748.488 892.857 736.676 895.082C724.175 897.439 711.634 896.679 699.094 896.719C685.34 896.773 671.593 896.476 657.839 896.319C655.434 896.296 655.09 895.841 655.724 893.546L656.312 891.432C657.651 887.217 658.372 887.03 662.648 886.325C665.609 885.847 668.68 884.735 671.163 883.09C672.604 882.134 673.199 879.643 673.763 877.724C674.249 876.048 674.272 874.207 674.288 872.437C674.484 845.61 674.687 818.79 674.797 791.979C674.82 785.204 674.664 778.413 674.288 771.645C674.022 766.906 671.492 763.663 665.852 762.543C661.466 761.674 657.048 761 652.638 760.225L651.158 759.763ZM777.077 824.72C776.482 819.378 776.192 813.989 775.237 808.725C772.949 796.091 767.419 785.086 757.707 776.462C742.002 762.528 723.094 760.382 703.277 762.042C698.765 762.418 697.794 763.961 697.724 768.598C697.614 775.178 697.504 781.757 697.496 788.337C697.465 809.203 697.465 830.07 697.496 850.936C697.504 856.873 697.567 862.811 697.739 868.732C697.927 874.795 700.128 879.925 706.065 882.275C715.426 885.98 725.271 886.419 735.094 884.907C750.783 882.502 761.756 873.361 769.119 859.662C774.947 848.79 776.592 836.923 777.077 824.72V824.72ZM815.215 895.771C815.027 892.52 816.359 889.834 818.003 887.366C818.45 886.701 819.985 886.732 821.043 886.52L830.019 884.742C833.191 884.069 834.86 881.938 835.306 878.829C835.604 876.776 835.886 874.701 835.909 872.625C836.105 856.2 836.293 839.774 836.371 823.349C836.45 806.9 836.387 790.452 836.387 774.003L836.316 770.862C835.995 765.575 833.442 762.833 828.194 762.058L816.813 760.327C815.411 760.139 814.902 759.465 815.411 758.22C816.288 756.097 817.126 753.896 818.364 751.985C818.826 751.28 820.385 751.006 821.434 751.029C826.87 751.108 832.306 751.515 837.742 751.507L885.06 751.225C894.177 751.217 902.981 752.807 911.159 757.17C920.158 761.964 925.195 769.381 926.636 779.486C928.14 790.099 924.921 799.044 917.166 806.148C913.978 809.078 909.85 810.989 906.153 813.37L904.947 814.122C908.378 815.383 911.644 816.472 914.824 817.772C924.13 821.587 931.532 827.548 935.448 837.064C938.542 844.576 938.542 852.409 936.709 860.194C933.858 872.382 925.829 880.489 915.388 886.622C905.589 892.379 894.984 895.732 883.689 896.296C873.271 896.82 862.807 896.625 852.366 896.742L846.319 896.773C836.262 896.546 826.197 896.288 816.131 896.022L815.215 895.771ZM858.585 848.077H858.687C858.687 853.231 858.616 858.385 858.71 863.539C858.773 866.876 858.656 870.307 859.376 873.518C860.457 878.32 862.65 882.651 868.039 884.03C875.316 885.902 882.749 886.278 890.112 885.001C899.331 883.395 906.686 878.774 910.72 869.993C913.712 863.469 914.158 856.552 913.132 849.487C911.77 840.182 906.827 833.43 898.61 829.004C893.221 826.098 887.472 824.32 881.347 824.085C874.486 823.827 867.616 823.811 860.755 823.6C858.828 823.545 858.561 824.524 858.569 826.106C858.608 833.422 858.585 840.746 858.585 848.077V848.077ZM873.193 813.026C876.945 812.838 881.19 812.783 885.412 812.36C893.496 811.553 899.19 807.488 902.159 799.757C903.67 795.833 903.608 791.791 903.647 787.71C903.764 777.081 897.561 768.371 887.464 764.768C879.671 761.987 871.634 761.94 863.551 762.16C860.277 762.246 858.812 763.679 858.765 766.977L858.28 809.971C858.256 811.678 858.992 812.415 860.653 812.469L873.193 813.026Z" fill="#94795D"/>
<path fill-rule="evenodd" clip-rule="evenodd" d="M50.2591 887.507L49.6873 894.902C44.361 894.902 39.4499 894.862 34.5387 894.917C25.2882 895.011 16.0378 895.16 6.77942 895.293L5.88649 895.348C4.56275 895.191 2.15809 895.191 2.09543 894.8C1.70379 892.599 1.82912 890.288 1.93094 888.009C1.93878 887.75 2.83954 887.421 3.36434 887.296L10.5626 885.69C15.0508 884.523 16.633 882.588 16.8445 877.951C17.0873 872.727 17.3302 867.495 17.3537 862.27C17.4242 849.409 17.3458 836.563 17.4007 823.702C17.4085 820.694 16.3667 818.454 13.5626 817.232C10.2258 815.759 6.87342 814.318 3.49749 812.955C1.89961 812.313 -0.176074 811.96 0.0119125 809.814C0.199899 807.629 2.21292 807.057 4.10845 806.626C11.9569 804.833 19.8131 803.086 27.6381 801.175C30.1602 800.556 32.5727 799.514 35.5883 798.465C35.745 800.094 36.0348 801.645 36.0035 803.196L35.5413 810.566C35.5335 811.396 35.9643 812.509 36.5831 812.971C36.9591 813.261 38.2201 812.736 38.8468 812.25C45.5359 807.159 52.6168 802.765 60.6923 800.203C73.2013 796.232 83.94 799.914 91.4595 810.699C94.1069 814.498 94.1148 814.498 97.7883 811.843C104.094 807.261 110.689 803.219 118.067 800.556C134.266 794.705 149.829 802.13 155.461 818.446C157.513 824.367 158.296 830.485 158.281 836.735L158.132 878.233C158.124 881.656 159.26 883.607 162.518 884.672C166.176 885.87 169.967 886.693 174.087 887.774L173.132 894.909C168.448 894.909 164.14 894.878 159.832 894.917C149.304 895.011 138.777 895.066 128.258 895.309C126.425 895.356 125.947 894.902 125.853 893.186C125.548 887.695 125.501 887.703 130.67 886.466L132.409 886.019C137.461 884.641 139.145 883.09 139.184 877.967C139.302 863.257 139.607 848.508 138.863 833.829C138.088 818.603 126.002 810.496 111.245 814.396C106.428 815.665 102.065 817.89 98.0076 820.772C96.6369 821.751 96.3784 822.879 96.4881 824.595C96.9032 831.08 97.1617 837.574 97.2165 844.067C97.3105 855.432 97.1695 866.798 97.2165 878.171C97.2322 882.776 98.8066 884.539 103.357 885.604L110.117 887.163L111.37 887.445C111.464 889.607 111.55 891.768 111.449 893.93C111.386 895.285 110.336 895.403 109.161 895.379C102.59 895.215 96.0103 894.996 89.4386 895.011C81.4413 895.027 73.4519 895.254 65.4625 895.395H63.5826C63.5826 893.1 63.473 890.907 63.661 888.721C63.7001 888.197 64.6244 887.46 65.2589 887.296L73.1386 885.628C76.4832 884.805 78.0811 883.09 78.2691 879.69C79.162 863.946 79.8043 848.195 78.3239 832.459C78.0341 829.404 77.0393 826.302 75.7704 823.49C71.7365 814.577 62.6584 810.856 52.186 813.535C47.2122 814.804 42.724 817.083 38.4786 819.958C36.4734 821.321 35.5178 823.122 35.5178 825.401C35.5178 841.106 35.5727 856.811 35.6197 872.508L35.7058 878.562C35.7998 882.784 37.5935 885.009 41.7841 885.917C44.4785 886.528 47.2043 886.943 50.2591 887.507V887.507Z" fill="#50382B"/>
<path fill-rule="evenodd" clip-rule="evenodd" d="M523.812 800.07C525.027 805.976 525.003 811.286 520.664 815.312C516.356 819.315 510.904 817.968 505.586 817.075C506.079 819.879 506.627 822.26 506.894 824.673C508.828 842.602 501.113 855.91 484.484 863.515C478.202 866.382 471.537 867.447 464.73 867.996C461.346 868.262 458.385 870.847 458.064 873.627C457.735 876.447 459.505 879.345 463.046 880.191C467.221 881.186 471.576 881.468 475.86 881.961C485.056 883.011 494.353 883.489 503.439 885.134C517.178 887.609 524.846 899.601 522.426 913.402C520.272 925.684 513.16 934.621 503.244 941.475C486.536 953.052 468.208 956.435 448.688 950.53C437.527 947.146 429.655 939.806 426.937 927.932C425.574 921.987 427.023 916.606 431.495 912.572C436.814 907.794 442.602 903.533 448.171 899.021L449.973 897.212L447.905 895.763C442.226 893.068 437.683 889.379 435.921 882.972C435.318 880.802 435.944 879.377 437.785 878.264C440.918 876.377 444.036 874.458 447.13 872.507C448.587 871.599 450.028 870.659 451.383 869.609C453.231 868.199 453.067 867.15 450.858 866.335C445.72 864.44 441.153 861.69 437.613 857.461C431.699 850.403 430.023 841.999 430.509 833.124C431.268 819.26 438.796 810.127 451.03 804.253C465.576 797.274 480.168 796.835 494.996 803.195C500.479 805.545 506.259 806.046 512.142 805.639C516.536 805.326 520.374 803.665 523.812 800.07V800.07ZM470.213 899.397C459.294 899.303 455.871 900.65 449.464 907.175C442.289 914.491 442.328 924.634 449.487 931.981C454.923 937.551 461.706 940.159 469.249 940.942C478.061 941.851 486.74 941.483 494.745 937.073C503.283 932.35 507.528 923.577 505.609 914.742C504.019 907.449 498.646 904.112 492.105 902.193C484.664 900.016 476.972 899.601 470.213 899.397V899.397ZM448.767 829.623C449.166 832.654 449.331 835.725 450.004 838.693C451.751 846.385 455.096 853.145 462.748 856.568C471.732 860.602 483.207 858.87 487.139 846.26C489.834 837.62 489.505 829.043 486.254 820.615C484.805 816.855 482.471 813.675 479.126 811.341C471.325 805.897 457.25 805.177 451.516 817.208C449.652 821.117 448.923 825.276 448.767 829.623V829.623Z" fill="#4F382B"/>
<path fill-rule="evenodd" clip-rule="evenodd" d="M338.56 798.135C338.849 799.475 339.429 800.994 339.445 802.522C339.468 805.428 339.155 808.334 338.99 811.24V813.762L341.45 811.882C348.186 806.336 355.424 801.613 363.852 799.067C379.063 794.485 394.258 802.812 399.217 818.305C401.096 824.195 401.841 830.25 401.911 836.406C402.068 850.082 402.162 863.758 402.303 877.434C402.35 882.345 402.914 883.223 407.558 884.64C410.19 885.447 412.908 886.011 415.626 886.434C417.122 886.669 417.765 887.257 417.686 888.721L417.702 890.069C417.647 895.732 417.255 895.99 411.765 895.974C398.621 895.951 385.486 896.029 372.342 896.139C368.426 896.17 368.418 896.288 368.026 892.418L367.948 890.194C368.191 886.857 368.269 886.888 371.551 886.403C373.76 886.074 375.953 885.565 378.107 885.001C380.324 884.429 381.389 882.792 381.687 880.599C381.836 879.486 382.031 878.374 382.024 877.262C381.836 862.317 382.078 847.356 381.264 832.435C380.606 820.365 371.395 813.174 359.277 813.997C353.332 814.412 347.959 816.394 343.056 819.816C339.821 822.08 339.171 825.346 339.186 828.863C339.249 842.837 339.382 856.811 339.531 870.792C339.562 873.855 339.648 876.917 339.938 879.956C340.244 883.278 341.411 884.617 344.669 885.338C347.787 886.027 350.967 886.426 354.296 886.982L354.578 889.552C354.687 895.544 354.061 895.99 348.241 895.967C334.651 895.912 321.061 895.998 307.479 896.147C305.341 896.178 304.432 895.504 304.487 893.421L304.456 892.528C304.103 887.131 304.26 886.928 309.367 886.05L311.779 885.565C317.309 884.319 318.727 882.847 318.805 877.231C319.064 859.442 319.158 841.662 319.338 823.874C319.362 821.32 318.398 819.339 316.017 818.281C312.68 816.809 309.312 815.407 305.936 814.02C304.072 813.253 301.941 812.767 301.871 810.19C301.824 808.373 303.766 806.767 306.422 806.227C311.756 805.146 317.137 804.245 322.408 802.921C327.656 801.613 332.81 799.859 338.56 798.135Z" fill="#4F372B"/>
<path fill-rule="evenodd" clip-rule="evenodd" d="M632.406 844.599C632.155 861.212 627.84 874.646 616.09 884.726C601.208 897.517 577.992 901.865 559.013 892.301C550.914 888.22 544.961 881.962 541.084 873.839C535.139 861.346 533.651 848.21 536.752 834.753C539.823 821.446 547.883 811.803 559.945 805.561C572.352 799.146 585.417 796.639 599.195 800.007C616.623 804.26 629.148 818.469 631.638 836.563C632.085 839.735 632.257 842.946 632.406 844.599V844.599ZM612.221 853.599L611.547 853.521C611.547 851.954 611.634 850.388 611.532 848.821C610.96 839.061 608.767 829.764 603.111 821.594C597.746 813.856 590.438 809.289 580.929 808.623C570.284 807.871 561.339 813.824 558.198 824.696C553.483 841.02 555.081 856.928 563.368 871.881C566.979 878.398 572.329 883.207 579.496 885.737C593.54 890.679 605.994 884.28 609.652 869.899C610.999 864.588 611.391 859.035 612.221 853.599Z" fill="#4F382B"/>
<path fill-rule="evenodd" clip-rule="evenodd" d="M287.404 845.884C287.114 857.805 284.302 868.826 276.939 878.405C269.052 888.666 258.211 894.149 245.882 896.46C231.306 899.186 217.614 896.711 205.904 886.927C200.343 882.275 196.544 876.314 194.037 869.531C189.925 858.408 188.899 847.012 191.429 835.396C194.131 822.965 201.149 813.464 212.029 807.088C224.609 799.733 238.183 796.451 252.681 799.757C271.323 804.018 282.085 816.166 286.065 834.558C286.863 838.27 286.973 842.108 287.404 845.884V845.884ZM266.992 853.748L266.451 853.67V851.429C266.146 840.495 264.007 830.077 257.483 820.991C252.65 814.247 246.18 810.018 237.885 808.835C224.366 806.908 215.53 814.929 212.601 825.824C208.779 840.056 209.977 854.116 215.891 867.612C219.58 876.024 225.408 882.58 234.36 885.76C248.318 890.718 260.961 884.155 264.493 869.829C265.793 864.588 266.185 859.121 266.992 853.748V853.748Z" fill="#4F372B"/>
<path fill-rule="evenodd" clip-rule="evenodd" d="M612.8 238.14C622.411 265.923 629.32 294.285 631.599 323.674C634.419 360.143 633.134 396.362 625.443 432.228L624.456 435.095C622.043 435.102 619.584 434.797 617.226 435.165C597.307 438.298 577.412 441.541 557.509 444.768C536.932 448.105 516.34 451.308 495.802 454.865C488.526 456.118 479.518 454.622 476.581 464.679L475.171 465.157L476.166 405.017L475.155 259.907L484.743 258.262C500.416 255.701 516.089 253.092 531.786 250.594C550.506 247.625 569.242 244.727 587.978 241.829C596.25 240.56 604.529 239.377 612.8 238.14V238.14Z" fill="#439934"/>
<path fill-rule="evenodd" clip-rule="evenodd" d="M455.385 640.485C445.273 631.791 434.809 623.48 425.12 614.331C372.969 565.142 334.816 507.234 316.025 437.421C310.847 418.215 307.401 398.688 306.289 378.839C305.505 364.944 304.385 350.931 305.372 337.106C307.981 300.347 313.299 263.941 324.077 228.529L324.672 227.706C325.722 229.1 327.226 230.338 327.758 231.912C338.286 262.899 348.727 293.917 359.121 324.958C391.775 422.484 424.391 520.033 457.101 617.543C457.743 619.446 459.396 621.005 460.586 622.72L455.385 640.485Z" fill="#45A538"/>
<path fill-rule="evenodd" clip-rule="evenodd" d="M612.8 238.14C604.521 239.369 596.242 240.56 587.978 241.829C569.242 244.727 550.506 247.625 531.786 250.594C516.097 253.085 500.424 255.693 484.742 258.262L475.155 259.907L475.077 253.656C474.756 248.518 474.223 243.38 474.153 238.242L473.079 139.909C472.829 119.395 472.453 98.881 472.038 78.3748C471.779 65.6309 471.505 52.8792 470.933 40.1509C470.62 33.3129 469.516 26.5063 469.077 19.6682C468.818 15.7362 469.163 11.7728 469.249 7.8251C474.137 17.2949 478.923 26.8352 483.943 36.2345C491.878 51.0933 504.528 62.0435 515.925 73.9885C560.932 121.228 592.882 176.12 612.8 238.14V238.14Z" fill="#46A037"/>
<path fill-rule="evenodd" clip-rule="evenodd" d="M475.179 465.157L476.589 464.679C479.526 454.621 488.534 456.118 495.81 454.864C516.348 451.308 536.94 448.105 557.517 444.768C577.42 441.549 597.315 438.306 617.234 435.165C619.591 434.797 622.051 435.102 624.463 435.094C620.743 448.379 617.813 461.953 613.09 474.869C607.725 489.516 601.239 503.819 594.354 517.84C584.062 538.792 571.24 558.343 556.342 576.256C544.859 590.058 532.06 602.833 519.238 615.436C512.141 622.399 503.792 628.078 496.006 634.344L493.985 632.966L486.724 626.762L479.213 610.282C474.035 590.998 471.325 571.369 470.871 551.411L471.012 548.059L472.038 533.537C472.375 528.578 472.829 523.628 473.04 518.67C473.792 500.843 474.466 483 475.179 465.157V465.157Z" fill="#409433"/>
<path fill-rule="evenodd" clip-rule="evenodd" d="M475.179 465.156C474.474 482.999 473.8 500.85 473.04 518.693C472.829 523.659 472.383 528.609 472.038 533.56L467.464 535.291C457.297 505.362 447.122 475.746 437.174 446.06C420.718 396.941 404.465 347.751 388.031 298.616C374.771 258.966 361.392 219.34 347.943 179.746C347.309 177.897 345.507 176.44 344.254 174.803L373.549 120.937C374.559 122.684 375.883 124.321 376.517 126.201C390.068 166.305 403.595 206.416 417.005 246.567C434.456 298.812 451.79 351.08 469.226 403.332C469.923 405.416 471.067 407.343 472.163 409.685L476.174 405.016C475.837 425.068 475.508 445.104 475.179 465.156Z" fill="#4FAA41"/>
<path fill-rule="evenodd" clip-rule="evenodd" d="M344.246 174.804C345.508 176.441 347.309 177.898 347.936 179.746C361.385 219.341 374.763 258.959 388.024 298.616C404.457 347.751 420.71 396.941 437.167 446.06C447.114 475.747 457.289 505.355 467.456 535.291L472.03 533.56L471.004 548.082L470.072 551.427C468.482 567.32 467.143 583.244 465.2 599.105C464.229 607.055 462.153 614.857 460.579 622.721C459.396 621.005 457.735 619.447 457.093 617.543C424.376 520.033 391.768 422.484 359.113 324.958C348.719 293.917 338.27 262.899 327.751 231.913C327.218 230.338 325.714 229.101 324.665 227.706L344.246 174.804Z" fill="#4AA73C"/>
<path fill-rule="evenodd" clip-rule="evenodd" d="M476.166 405.016L472.155 409.685C471.059 407.343 469.915 405.416 469.218 403.332C451.782 351.08 434.448 298.812 416.997 246.567C403.587 206.417 390.06 166.305 376.509 126.201C375.875 124.321 374.551 122.684 373.541 120.938L409.767 73.283C410.911 74.8026 412.54 76.1576 413.128 77.873C423.185 107.324 433.148 136.799 443.064 166.297C452.323 193.853 461.44 221.44 470.808 248.948C471.435 250.789 473.62 252.089 475.077 253.656L475.155 259.907L476.166 405.016Z" fill="#57AE47"/>
<path fill-rule="evenodd" clip-rule="evenodd" d="M475.077 253.656C473.612 252.098 471.435 250.797 470.808 248.949C461.448 221.44 452.323 193.853 443.064 166.297C433.148 136.799 423.185 107.325 413.128 77.8734C412.54 76.158 410.911 74.8029 409.767 73.2834C421.548 61.7457 432.96 49.7929 445.218 38.7879C456.114 29.0126 464.871 18.5323 465.278 3.07828L466.14 0L469.241 7.8171C469.163 11.7648 468.811 15.7282 469.069 19.6602C469.516 26.4982 470.62 33.3049 470.926 40.1429C471.497 52.8712 471.771 65.6229 472.03 78.3668C472.445 98.873 472.821 119.387 473.072 139.901L474.145 238.234C474.223 243.38 474.764 248.518 475.077 253.656V253.656Z" fill="#60B24F"/>
<path fill-rule="evenodd" clip-rule="evenodd" d="M460.586 622.713C462.161 614.849 464.236 607.047 465.208 599.097C467.15 583.243 468.489 567.312 470.08 551.419L470.479 551.356L470.871 551.427C471.325 571.385 474.035 591.013 479.213 610.298C478.155 611.692 476.675 612.922 476.111 614.488C471.764 626.754 467.659 639.122 463.289 651.381C462.693 653.057 461.017 654.365 459.85 655.83L455.377 640.477L460.586 622.713Z" fill="#A9AA88"/>
<path fill-rule="evenodd" clip-rule="evenodd" d="M459.85 655.837C461.017 654.365 462.693 653.065 463.289 651.388C467.659 639.13 471.764 626.762 476.111 614.496C476.667 612.93 478.155 611.7 479.213 610.306L486.724 626.786C485.244 628.885 483.192 630.788 482.369 633.13L467.988 675.364C467.393 677.064 465.38 678.255 464.017 679.688L459.85 655.837Z" fill="#B6B598"/>
<path fill-rule="evenodd" clip-rule="evenodd" d="M464.017 679.681C465.372 678.247 467.393 677.057 467.988 675.357L482.369 633.123C483.184 630.781 485.244 628.877 486.724 626.778L493.993 632.974C490.484 636.444 488.534 640.454 489.709 645.522L487.5 652.751C486.497 653.989 485.04 655.07 484.547 656.488C479.526 670.869 474.74 685.328 469.68 699.701C469.038 701.518 467.26 702.952 466.014 704.565L464.017 679.681Z" fill="#C2C1A7"/>
<path fill-rule="evenodd" clip-rule="evenodd" d="M466.007 704.558C467.26 702.944 469.038 701.511 469.672 699.693C474.732 685.32 479.526 670.861 484.539 656.48C485.032 655.062 486.489 653.989 487.492 652.744L484.445 685.923C483.63 686.863 482.455 687.686 482.064 688.774L471.928 717.818C471.215 719.8 469.853 721.57 468.787 723.427C467.839 722.189 466.148 720.991 466.069 719.706C465.772 714.677 465.983 709.61 466.007 704.558V704.558Z" fill="#CECDB7"/>
<path fill-rule="evenodd" clip-rule="evenodd" d="M468.795 723.434C469.86 721.578 471.223 719.808 471.936 717.826L482.072 688.782C482.463 687.686 483.646 686.871 484.453 685.931L484.531 707.706L477.239 726.403L468.795 723.434Z" fill="#DBDAC7"/>
<path fill-rule="evenodd" clip-rule="evenodd" d="M477.239 726.403L484.531 707.706L486.035 729.826L477.239 726.403Z" fill="#EBE9DC"/>
<path fill-rule="evenodd" clip-rule="evenodd" d="M489.701 645.522C488.534 640.462 490.476 636.452 493.985 632.974L496.006 634.352L489.701 645.522Z" fill="#CECDB7"/>
<path fill-rule="evenodd" clip-rule="evenodd" d="M470.871 551.435L470.479 551.364L470.08 551.427L471.012 548.082L470.871 551.435Z" fill="#4FAA41"/>
</svg>
