<svg width="260" height="258" viewBox="0 0 260 258" fill="none" xmlns="http://www.w3.org/2000/svg">
<path d="M128.629 0C62.8469 4.68771e-06 66.9547 28.5273 66.9547 28.5273L67.0281 58.0812H129.803V66.9547H42.0942C42.0942 66.9547 0 62.1809 0 128.556C-4.69786e-06 194.931 36.7408 192.577 36.7408 192.577H58.6679V161.777C58.6679 161.777 57.486 125.036 94.822 125.036H157.083C157.083 125.036 192.064 125.601 192.064 91.2286V34.3941C192.064 34.3941 197.375 0 128.629 0V0ZM94.0153 19.8738C100.261 19.8737 105.309 24.9217 105.309 31.1673C105.309 37.4129 100.261 42.4609 94.0153 42.4609C87.7697 42.4609 82.7217 37.4129 82.7217 31.1673C82.7217 24.9217 87.7697 19.8738 94.0153 19.8738Z" fill="url(#paint0_linear_341_69)"/>
<path d="M130.498 257.778C196.28 257.778 192.172 229.25 192.172 229.25L192.099 199.696H129.324V190.823H217.033C217.033 190.823 259.127 195.597 259.127 129.222C259.127 62.8465 222.386 65.2003 222.386 65.2003H200.459V96.0009C200.459 96.0009 201.641 132.742 164.305 132.742H102.044C102.044 132.742 67.0629 132.176 67.0629 166.549V223.384C67.0629 223.384 61.7519 257.778 130.498 257.778V257.778ZM165.112 237.904C158.866 237.904 153.818 232.856 153.818 226.61C153.818 220.365 158.866 215.317 165.112 215.317C171.357 215.317 176.405 220.365 176.405 226.61C176.405 232.856 171.357 237.904 165.112 237.904Z" fill="url(#paint1_linear_341_69)"/>
<defs>
<linearGradient id="paint0_linear_341_69" x1="24.9026" y1="23.1864" x2="153.317" y2="150.319" gradientUnits="userSpaceOnUse">
<stop stop-color="#387EB8"/>
<stop offset="1" stop-color="#366994"/>
</linearGradient>
<linearGradient id="paint1_linear_341_69" x1="103.723" y1="104.823" x2="241.626" y2="235.187" gradientUnits="userSpaceOnUse">
<stop stop-color="#FFE052"/>
<stop offset="1" stop-color="#FFC331"/>
</linearGradient>
</defs>
</svg>
