<svg width="67" height="67" viewBox="0 0 67 67" fill="none" xmlns="http://www.w3.org/2000/svg">
<path d="M61.253 55.7041C61.2479 56.4353 60.9553 57.1352 60.4385 57.6525C59.9218 58.1698 59.2222 58.463 58.491 58.4688H8.3304C7.59763 58.4681 6.89513 58.1765 6.37724 57.6581C5.85935 57.1397 5.56845 56.4369 5.56845 55.7041V52.9004H55.6845V20.325L33.4107 40.3714L5.56845 15.3133V11.137C5.56845 10.3986 5.86179 9.69041 6.38393 9.16826C6.90608 8.64612 7.61425 8.35278 8.35268 8.35278H58.4687C59.2072 8.35278 59.9153 8.64612 60.4375 9.16826C60.9596 9.69041 61.253 10.3986 61.253 11.137V55.7041ZM12.3453 13.9212L33.4107 32.8818L54.4762 13.9212H12.3453ZM0 41.7635H22.2738V47.3319H0L0 41.7635ZM0 27.8424H13.9211V33.4108H0V27.8424Z" fill="#38334B"/>
</svg>
