<svg width="166" height="166" viewBox="0 0 166 166" fill="none" xmlns="http://www.w3.org/2000/svg">
<path d="M82.7281 165.456C128.418 165.456 165.456 128.418 165.456 82.7281C165.456 37.0386 128.418 0 82.7281 0C37.0386 0 0 37.0386 0 82.7281C0 128.418 37.0386 165.456 82.7281 165.456Z" fill="#9146FF"/>
<path d="M111.958 86.4445L99.6938 98.0781H87.4139L76.6689 108.258V98.0781H62.854V54.4843H111.958V86.4445ZM59.784 48.6675L44.4341 63.1934V115.512H62.854V130.038L78.2039 115.512H90.4839L118.098 89.3529V48.6675H59.784ZM102.764 65.1161H96.6239V82.5504H102.764V65.1161ZM79.7389 65.0354H85.8789V82.4696H79.7389V65.0354Z" fill="white"/>
</svg>
