<svg width="16" height="17" viewBox="0 0 16 17" fill="none" xmlns="http://www.w3.org/2000/svg">
<path d="M8.59994 0.0132033C7.54179 0.0742971 6.49937 0.304063 5.53273 0.689219C5.12663 0.849922 4.36448 1.22977 4.12425 1.39047C4.09279 1.41039 3.96982 1.49273 3.85113 1.57109C3.59517 1.73844 3.32778 1.93633 3.10614 2.11828C2.87306 2.30953 2.56991 2.57516 2.53702 2.61633C2.52129 2.63625 2.44694 2.71461 2.37258 2.79031C0.623772 4.57266 -0.222749 6.97789 0.0503684 9.38844C0.269148 11.3262 1.1886 13.1191 2.6743 14.5004C3.6252 15.3836 4.71767 16.0357 5.98459 16.474C6.56514 16.6745 7.22148 16.8299 7.84922 16.9123C8.33683 16.976 8.57849 16.9906 9.13616 16.9906C9.67096 16.992 9.8783 16.98 10.2944 16.9309C10.416 16.9163 10.5547 16.9003 10.6018 16.8977C10.649 16.8937 10.7749 16.8724 10.8807 16.8512C11.8916 16.6387 12.4493 16.462 13.2043 16.1154C13.7563 15.8617 14.1652 15.6293 14.6343 15.3026C15.0075 15.0423 15.0418 15.0064 14.9732 14.9427C14.9488 14.9201 14.9117 14.9161 14.64 14.9095C12.149 14.8417 9.79822 13.7952 8.14093 12.0181C6.44789 10.2013 5.68574 7.76016 6.06324 5.36422C6.37496 3.38 7.44884 1.57375 9.10042 0.252266C9.26629 0.119453 9.26486 0.12211 9.26486 0.0769533C9.26486 0.00789083 9.2334 -0.00140605 8.99889 -7.79222e-05C8.88164 0.0012502 8.70289 0.00789083 8.59994 0.0132033Z" fill="black"/>
</svg>
