<svg width="16" height="17" viewBox="0 0 16 17" fill="none" xmlns="http://www.w3.org/2000/svg">
<path d="M13.6458 15.3343C11.3935 15.0491 9.30626 14.001 7.77527 12.3594L7.77513 12.3592C5.98021 10.433 5.16725 7.83858 5.56933 5.28664C5.84843 3.51041 6.69981 1.87482 7.99827 0.570229C7.21108 0.668789 6.44142 0.865627 5.71781 1.15395L5.71671 1.15438C5.32916 1.30775 4.60238 1.67242 4.40226 1.8063L4.40234 1.80643L4.39176 1.81313C4.37717 1.82237 4.33628 1.84953 4.28109 1.8862C4.23676 1.91566 4.18319 1.95125 4.12662 1.9886L4.12474 1.98983C3.88459 2.14684 3.63172 2.33395 3.42339 2.50498L3.4233 2.50506C3.31149 2.5968 3.18153 2.70751 3.07587 2.80002C3.02297 2.84633 2.97791 2.88655 2.94518 2.9166C2.92903 2.93143 2.91768 2.94213 2.91064 2.94897C2.86578 3.00078 2.78516 3.08404 2.72929 3.14092C1.08251 4.81939 0.291604 7.07658 0.54719 9.33239L0.547212 9.33259C0.752024 11.1466 1.6128 12.831 3.01457 14.1343L13.6458 15.3343ZM13.6458 15.3343C13.4461 15.4455 13.2358 15.5509 12.9957 15.6612L13.6458 15.3343ZM10.2352 16.4346C9.84258 16.481 9.65548 16.4922 9.13741 16.4909L9.13616 16.4909C8.59731 16.4909 8.3775 16.4773 7.91425 16.4168L10.2352 16.4346ZM10.2352 16.4346C10.3411 16.4219 10.4878 16.4047 10.5607 16.3995C10.5634 16.3992 10.5694 16.3985 10.5794 16.397C10.5946 16.3948 10.6141 16.3918 10.6367 16.388C10.6814 16.3805 10.7331 16.371 10.7801 16.3616C11.7614 16.1553 12.282 15.9889 12.9955 15.6613L10.2352 16.4346ZM2.90442 2.95517C2.90444 2.95516 2.90527 2.95434 2.90673 2.95281C2.90512 2.95441 2.9044 2.95517 2.90442 2.95517ZM2.92237 2.93515C2.92408 2.9331 2.92585 2.93093 2.92768 2.92864C2.92602 2.93071 2.92425 2.93289 2.92237 2.93515ZM3.01474 14.1344C3.91314 14.9688 4.9448 15.5854 6.14785 16.0016L3.01474 14.1344ZM6.14806 16.0017C6.69647 16.1911 7.31972 16.3388 7.91404 16.4167L6.14806 16.0017Z" fill="white" stroke="black"/>
</svg>
