<svg preserveAspectRatio="none" width="4510" height="224" viewBox="0 0 4510 224" fill="none" xmlns="http://www.w3.org/2000/svg">
<path d="M2255 192V0H1694.5H1127.25H563.625H0L0 192C0 192 74.5 -7 255 50.5C420 106.5 448.5 205 537 160C607.419 124.194 791.891 6.96902 869.5 85C961.5 177.5 1079 160 1271.5 85C1408.62 31.5747 1530 210.5 1641 106.5C1703.55 47.894 1853 0 1983.5 78C2046.5 134.5 2220 289 2255 192Z M4510 192V0H3949.5H3382.25H2818.62H2255L2255 192C2255 192 2329.5 -7 2510 50.5C2675 106.5 2703.5 205 2792 160C2862.42 124.194 3046.89 6.96902 3124.5 85C3216.5 177.5 3334 160 3526.5 85C3663.62 31.5747 3785 210.5 3896 106.5C3958.55 47.894 4108 0 4238.5 78C4301.5 134.5 4475 289 4510 192Z" fill="#FFA74F"/>
</svg>
