<svg width="260" height="366" viewBox="0 0 260 366" fill="none" xmlns="http://www.w3.org/2000/svg">
<path d="M259.127 71.8801L235.52 336.34L129.405 365.758L23.5821 336.381L0 71.8801H259.127Z" fill="#E44D26"/>
<path d="M129.563 343.272L215.31 319.5L235.483 93.5071H129.563V343.272Z" fill="#F16529"/>
<path d="M83.6721 158.388H129.563V125.947H48.2192L48.9958 134.65L56.9689 224.046H129.563V191.607H86.6367L83.6721 158.388Z" fill="#EBEBEB"/>
<path d="M90.9831 240.267H58.4185L62.9633 291.202L129.414 309.65L129.563 309.608V275.857L129.421 275.895L93.2927 266.139L90.9831 240.267Z" fill="#EBEBEB"/>
<path d="M24.1089 0H40.5944V16.2877H55.6748V0H72.1611V49.3231H55.6756V32.8068H40.5952V49.3231H24.1096V0H24.1089Z" fill="black"/>
<path d="M93.8408 16.3563H79.3276V0H124.847V16.3563H110.328V49.3231H93.8415V16.3563H93.8408Z" fill="black"/>
<path d="M132.071 0H149.261L159.835 17.3307L170.399 0H187.595V49.3231H171.177V24.8759L159.835 42.413H159.552L148.202 24.8759V49.3231H132.071V0Z" fill="black"/>
<path d="M195.8 0H212.291V33.0197H235.474V49.3231H195.8V0Z" fill="black"/>
<path d="M129.451 224.046H169.397L165.632 266.118L129.451 275.884V309.634L195.955 291.202L196.443 285.721L204.066 200.318L204.857 191.607H129.451V224.046Z" fill="white"/>
<path d="M129.451 158.308V158.388H207.809L208.46 151.096L209.938 134.65L210.714 125.947H129.451V158.308Z" fill="white"/>
</svg>
