<svg width="157" height="157" viewBox="0 0 157 157" fill="none" xmlns="http://www.w3.org/2000/svg">
<path d="M52.0633 78.0856C52.0633 63.711 63.7135 52.055 78.0887 52.055C92.4639 52.055 104.12 63.711 104.12 78.0856C104.12 92.4602 92.4639 104.116 78.0887 104.116C63.7135 104.116 52.0633 92.4602 52.0633 78.0856M37.9911 78.0856C37.9911 100.231 55.9427 118.182 78.0887 118.182C100.235 118.182 118.186 100.231 118.186 78.0856C118.186 55.9405 100.235 37.9896 78.0887 37.9896C55.9427 37.9896 37.9911 55.9405 37.9911 78.0856M110.403 36.3997C110.401 41.5748 114.595 45.7717 119.77 45.7738C124.945 45.7758 129.142 41.5823 129.144 36.4072C129.146 31.2322 124.953 27.0353 119.777 27.0332H119.774C114.601 27.0356 110.408 31.2272 110.403 36.3997M46.5409 141.645C38.9275 141.299 34.7895 140.031 32.0395 138.959C28.3937 137.54 25.7924 135.85 23.0574 133.118C20.3224 130.387 18.6295 127.789 17.2164 124.143C16.1444 121.394 14.8762 117.255 14.5301 109.642C14.1515 101.411 14.076 98.9388 14.076 78.0862C14.076 57.2336 14.1578 54.768 14.5301 46.5303C14.8768 38.9172 16.1544 34.7862 17.2164 32.0295C18.6357 28.3838 20.3262 25.7826 23.0574 23.0477C25.7886 20.3129 28.3874 18.62 32.0395 17.2069C34.7882 16.135 38.9275 14.8669 46.5409 14.5208C54.772 14.1422 57.2446 14.0666 78.0887 14.0666C98.9328 14.0666 101.408 14.1485 109.646 14.5208C117.259 14.8675 121.39 16.145 124.147 17.2069C127.793 18.62 130.394 20.3166 133.129 23.0477C135.864 25.7789 137.551 28.3838 138.97 32.0295C140.042 34.7781 141.311 38.9172 141.657 46.5303C142.035 54.768 142.111 57.2336 142.111 78.0862C142.111 98.9388 142.035 101.404 141.657 109.642C141.31 117.255 140.036 121.393 138.97 124.143C137.551 127.789 135.861 130.39 133.129 133.118C130.398 135.847 127.793 137.54 124.147 138.959C121.399 140.031 117.259 141.299 109.646 141.645C101.415 142.024 98.9421 142.1 78.0887 142.1C57.2353 142.1 54.7695 142.024 46.5409 141.645M45.8943 0.472886C37.5813 0.851445 31.9008 2.16953 26.94 4.0998C21.8024 6.09317 17.4531 8.76745 13.107 13.1065C8.76093 17.4456 6.09342 21.8015 4.09997 26.9389C2.16962 31.9026 0.851479 37.5798 0.472905 45.8925C0.088084 54.2182 0 56.88 0 78.0856C0 99.2911 0.088084 101.953 0.472905 110.279C0.851479 118.592 2.16962 124.268 4.09997 129.232C6.09342 134.367 8.76155 138.727 13.107 143.065C17.4525 147.402 21.8024 150.072 26.94 152.071C31.9102 154.002 37.5813 155.32 45.8943 155.698C54.2248 156.077 56.8823 156.171 78.0887 156.171C99.2951 156.171 101.957 156.083 110.283 155.698C118.597 155.32 124.273 154.002 129.237 152.071C134.372 150.072 138.724 147.404 143.07 143.065C147.416 138.726 150.078 134.367 152.077 129.232C154.008 124.268 155.332 118.591 155.704 110.279C156.083 101.947 156.171 99.2911 156.171 78.0856C156.171 56.88 156.083 54.2182 155.704 45.8925C155.326 37.5791 154.008 31.8995 152.077 26.9389C150.078 21.8046 147.41 17.4524 143.07 13.1065C138.731 8.76058 134.372 6.09317 129.244 4.0998C124.273 2.16953 118.596 0.845198 110.289 0.472886C101.963 0.0943274 99.3013 0 78.0949 0C56.8886 0 54.2248 0.0880805 45.8943 0.472886" fill="url(#paint0_radial_324_80)"/>
<defs>
<radialGradient id="paint0_radial_324_80" cx="0" cy="0" r="1" gradientUnits="userSpaceOnUse" gradientTransform="translate(20.7491 156.909) scale(203.876)">
<stop offset="0.09" stop-color="#FA8F21"/>
<stop offset="0.78" stop-color="#D82D7E"/>
</radialGradient>
</defs>
</svg>
