<svg width="260" height="159" viewBox="0 0 260 159" fill="none" xmlns="http://www.w3.org/2000/svg">
<path d="M128.158 158.674C127.279 158.674 126.459 158.44 125.698 158.03L117.908 153.403C116.736 152.758 117.322 152.524 117.673 152.407C119.255 151.88 119.548 151.763 121.188 150.825C121.363 150.708 121.598 150.767 121.773 150.884L127.748 154.457C127.982 154.574 128.275 154.574 128.451 154.457L151.821 140.927C152.056 140.809 152.173 140.575 152.173 140.282V113.28C152.173 112.987 152.056 112.753 151.821 112.636L128.451 99.164C128.217 99.0469 127.924 99.0469 127.748 99.164L104.377 112.636C104.143 112.753 104.026 113.046 104.026 113.28V140.282C104.026 140.517 104.143 140.809 104.377 140.927L110.762 144.617C114.218 146.374 116.385 144.324 116.385 142.274V115.623C116.385 115.272 116.678 114.92 117.088 114.92H120.075C120.426 114.92 120.778 115.213 120.778 115.623V142.274C120.778 146.901 118.259 149.595 113.866 149.595C112.519 149.595 111.465 149.595 108.477 148.131L102.327 144.617C100.804 143.738 99.8672 142.098 99.8672 140.341V113.339C99.8672 111.582 100.804 109.941 102.327 109.063L125.698 95.5325C127.162 94.7125 129.154 94.7125 130.618 95.5325L153.989 109.063C155.512 109.941 156.449 111.582 156.449 113.339V140.341C156.449 142.098 155.512 143.738 153.989 144.617L130.618 158.147C129.857 158.498 128.978 158.674 128.158 158.674ZM135.362 140.107C125.112 140.107 123.004 135.421 123.004 131.438C123.004 131.086 123.296 130.735 123.706 130.735H126.752C127.104 130.735 127.396 130.969 127.396 131.321C127.865 134.425 129.212 135.948 135.421 135.948C140.341 135.948 142.45 134.835 142.45 132.199C142.45 130.676 141.864 129.563 134.191 128.802C127.807 128.158 123.824 126.752 123.824 121.656C123.824 116.912 127.807 114.1 134.484 114.1C141.981 114.1 145.671 116.677 146.14 122.3C146.14 122.476 146.081 122.652 145.964 122.828C145.847 122.945 145.671 123.062 145.496 123.062H142.45C142.157 123.062 141.864 122.828 141.805 122.535C141.103 119.313 139.287 118.259 134.484 118.259C129.095 118.259 128.451 120.133 128.451 121.539C128.451 123.238 129.212 123.765 136.475 124.702C143.68 125.639 147.077 126.986 147.077 132.023C147.018 137.178 142.801 140.107 135.362 140.107Z" fill="#539E43"/>
<path d="M55.6444 53.0671C55.6444 52.0128 55.0586 51.0171 54.1215 50.4899L29.2865 36.1981C28.8765 35.9638 28.4079 35.8467 27.9393 35.7881H27.705C27.2364 35.7881 26.7679 35.9638 26.3579 36.1981L1.5229 50.4899C0.58573 51.0171 0 52.0128 0 53.0671L0.058573 91.491C0.058573 92.0182 0.351438 92.5453 0.820022 92.7796C1.28861 93.0725 1.87434 93.0725 2.28435 92.7796L17.0447 84.3451C17.9819 83.8179 18.5676 82.8222 18.5676 81.7679V63.786C18.5676 62.7317 19.1534 61.7359 20.0905 61.2088L26.3579 57.5772C26.8264 57.2844 27.3536 57.1672 27.8807 57.1672C28.4079 57.1672 28.9351 57.2844 29.3451 57.5772L35.6124 61.2088C36.5496 61.7359 37.1353 62.7317 37.1353 63.786V81.7679C37.1353 82.8222 37.721 83.8179 38.6582 84.3451L53.4186 92.7796C53.8872 93.0725 54.4729 93.0725 54.9415 92.7796C55.4101 92.5453 55.7029 92.0182 55.7029 91.491L55.6444 53.0671Z" fill="#333333"/>
<path d="M175.016 0.175719C174.548 -0.058573 173.962 -0.058573 173.552 0.175719C173.083 0.468584 172.791 0.937168 172.791 1.46432V39.5368C172.791 39.8882 172.615 40.2397 172.263 40.4739C171.912 40.6497 171.561 40.6497 171.209 40.4739L165 36.901C164.063 36.3738 162.95 36.3738 162.013 36.901L137.178 51.2514C136.241 51.7785 135.655 52.7743 135.655 53.8286V82.4708C135.655 83.5251 136.241 84.5208 137.178 85.048L162.013 99.3984C162.95 99.9255 164.063 99.9255 165 99.3984L189.835 85.048C190.772 84.5208 191.358 83.5251 191.358 82.4708V11.0703C191.358 9.95741 190.772 8.96167 189.835 8.43451L175.016 0.175719ZM172.732 73.0405C172.732 73.3334 172.615 73.5677 172.381 73.6848L163.887 78.605C163.653 78.7221 163.36 78.7221 163.126 78.605L154.633 73.6848C154.399 73.5677 154.281 73.2748 154.281 73.0405V63.2003C154.281 62.9074 154.399 62.6731 154.633 62.556L163.126 57.6358C163.36 57.5187 163.653 57.5187 163.887 57.6358L172.381 62.556C172.615 62.6731 172.732 62.966 172.732 63.2003V73.0405Z" fill="#333333"/>
<path d="M257.663 62.9661C258.6 62.4389 259.127 61.4432 259.127 60.3889V53.4187C259.127 52.3644 258.541 51.3686 257.663 50.8415L233.003 36.5497C232.066 36.0225 230.953 36.0225 230.016 36.5497L205.181 50.9001C204.244 51.4272 203.658 52.4229 203.658 53.4773V82.1195C203.658 83.1738 204.244 84.1695 205.181 84.6967L229.84 98.7542C230.778 99.2813 231.89 99.2813 232.769 98.7542L247.705 90.4368C248.174 90.2025 248.467 89.6754 248.467 89.1482C248.467 88.6211 248.174 88.0939 247.705 87.8596L222.753 73.5092C222.284 73.2164 221.992 72.7478 221.992 72.2206V63.259C221.992 62.7318 222.284 62.2046 222.753 61.9703L230.543 57.5188C231.012 57.2259 231.598 57.2259 232.066 57.5188L239.856 61.9703C240.325 62.2632 240.618 62.7318 240.618 63.259V70.2877C240.618 70.8149 240.911 71.342 241.379 71.5763C241.848 71.8692 242.434 71.8692 242.902 71.5763L257.663 62.9661Z" fill="#333333"/>
<path d="M231.129 61.6189C231.305 61.5017 231.539 61.5017 231.715 61.6189L236.459 64.3718C236.635 64.4889 236.752 64.6647 236.752 64.899V70.4048C236.752 70.6391 236.635 70.8148 236.459 70.932L231.715 73.6849C231.539 73.8021 231.305 73.8021 231.129 73.6849L226.385 70.932C226.209 70.8148 226.092 70.6391 226.092 70.4048V64.899C226.092 64.6647 226.209 64.4889 226.385 64.3718L231.129 61.6189Z" fill="#539E43"/>
<path d="M97.1728 36.6669C96.2356 36.1397 95.1227 36.1397 94.1856 36.6669L69.5263 50.9001C68.5892 51.4272 68.062 52.423 68.062 53.4773V82.0024C68.062 83.0567 68.6477 84.0524 69.5263 84.5796L94.1856 98.8128C95.1227 99.34 96.2356 99.34 97.1728 98.8128L121.832 84.5796C122.769 84.0524 123.296 83.0567 123.296 82.0024V53.4773C123.296 52.423 122.711 51.4272 121.832 50.9001L97.1728 36.6669Z" fill="url(#paint0_linear_341_65)"/>
<path d="M121.89 50.8999L97.1139 36.6666C96.8796 36.5495 96.5868 36.4324 96.3525 36.3738L68.5889 83.9351C68.8232 84.2279 69.116 84.4622 69.4089 84.6379L94.1853 98.8712C94.8881 99.2812 95.7082 99.3983 96.4696 99.164L122.535 51.4856C122.359 51.2513 122.125 51.0756 121.89 50.8999Z" fill="url(#paint1_linear_341_65)"/>
<path fill-rule="evenodd" clip-rule="evenodd" d="M93.3651 31.4539L93.0137 31.6296H93.4823L93.3651 31.4539Z" fill="url(#paint2_linear_341_65)"/>
<path fill-rule="evenodd" clip-rule="evenodd" d="M121.949 84.5794C122.652 84.1694 123.179 83.4665 123.413 82.7051L96.2352 36.3153C95.5323 36.1981 94.7708 36.2567 94.1265 36.6667L69.5259 50.8414L96.0595 99.2227C96.4109 99.1641 96.8209 99.0469 97.1723 98.8712L121.949 84.5794Z" fill="url(#paint3_linear_341_65)"/>
<path fill-rule="evenodd" clip-rule="evenodd" d="M124.233 84.111L124.058 83.8181V84.2281L124.233 84.111Z" fill="url(#paint4_linear_341_65)"/>
<path fill-rule="evenodd" clip-rule="evenodd" d="M121.949 84.5794L97.2311 98.8126C96.8796 98.9884 96.5282 99.1055 96.1182 99.1641L96.5867 100.043L123.999 84.1694V83.8179L123.296 82.6465C123.179 83.4665 122.652 84.1694 121.949 84.5794Z" fill="url(#paint5_linear_341_65)"/>
<path fill-rule="evenodd" clip-rule="evenodd" d="M121.949 84.5794L97.2311 98.8126C96.8796 98.9884 96.5282 99.1055 96.1182 99.1641L96.5867 100.043L123.999 84.1694V83.8179L123.296 82.6465C123.179 83.4665 122.652 84.1694 121.949 84.5794Z" fill="url(#paint6_linear_341_65)"/>
<defs>
<linearGradient id="paint0_linear_341_65" x1="105.725" y1="47.2771" x2="78.6955" y2="89.7474" gradientUnits="userSpaceOnUse">
<stop stop-color="#41873F"/>
<stop offset="0.3288" stop-color="#418B3D"/>
<stop offset="0.6352" stop-color="#419637"/>
<stop offset="0.9319" stop-color="#3FA92D"/>
<stop offset="1" stop-color="#3FAE2A"/>
</linearGradient>
<linearGradient id="paint1_linear_341_65" x1="91.9347" y1="71.0803" x2="159.627" y2="34.3033" gradientUnits="userSpaceOnUse">
<stop offset="0.1376" stop-color="#41873F"/>
<stop offset="0.4032" stop-color="#54A044"/>
<stop offset="0.7136" stop-color="#66B848"/>
<stop offset="0.9081" stop-color="#6CC04A"/>
</linearGradient>
<linearGradient id="paint2_linear_341_65" x1="72.3314" y1="31.4775" x2="117.98" y2="31.4775" gradientUnits="userSpaceOnUse">
<stop offset="0.0919165" stop-color="#6CC04A"/>
<stop offset="0.2864" stop-color="#66B848"/>
<stop offset="0.5968" stop-color="#54A044"/>
<stop offset="0.8624" stop-color="#41873F"/>
</linearGradient>
<linearGradient id="paint3_linear_341_65" x1="67.1609" y1="67.7406" x2="124.221" y2="67.7406" gradientUnits="userSpaceOnUse">
<stop offset="0.0919165" stop-color="#6CC04A"/>
<stop offset="0.2864" stop-color="#66B848"/>
<stop offset="0.5968" stop-color="#54A044"/>
<stop offset="0.8624" stop-color="#41873F"/>
</linearGradient>
<linearGradient id="paint4_linear_341_65" x1="106.989" y1="83.9666" x2="124.107" y2="83.9666" gradientUnits="userSpaceOnUse">
<stop offset="0.0919165" stop-color="#6CC04A"/>
<stop offset="0.2864" stop-color="#66B848"/>
<stop offset="0.5968" stop-color="#54A044"/>
<stop offset="0.8624" stop-color="#41873F"/>
</linearGradient>
<linearGradient id="paint5_linear_341_65" x1="67.161" y1="91.3925" x2="124.221" y2="91.3925" gradientUnits="userSpaceOnUse">
<stop offset="0.0919165" stop-color="#6CC04A"/>
<stop offset="0.2864" stop-color="#66B848"/>
<stop offset="0.5968" stop-color="#54A044"/>
<stop offset="0.8624" stop-color="#41873F"/>
</linearGradient>
<linearGradient id="paint6_linear_341_65" x1="132.534" y1="45.9285" x2="118.079" y2="121.675" gradientUnits="userSpaceOnUse">
<stop stop-color="#41873F"/>
<stop offset="0.3288" stop-color="#418B3D"/>
<stop offset="0.6352" stop-color="#419637"/>
<stop offset="0.9319" stop-color="#3FA92D"/>
<stop offset="1" stop-color="#3FAE2A"/>
</linearGradient>
</defs>
</svg>
