<svg width="260" height="132" viewBox="0 0 260 132" fill="none" xmlns="http://www.w3.org/2000/svg">
<path d="M129.563 0C58.0103 0 0 29.3975 0 65.6597C0 101.922 58.0103 131.319 129.563 131.319C201.117 131.319 259.127 101.922 259.127 65.6597C259.127 29.3975 201.117 0 129.563 0V0ZM95.8503 78.4519C92.7583 81.3446 89.3249 82.5386 85.5436 83.7686C81.7624 85.0007 76.9504 84.7462 71.0994 84.7462H57.8385L54.1633 105.953H38.6799L52.4964 33.8489H82.2713C91.2293 33.8489 97.7632 36.4255 101.871 41.1272C105.979 45.8288 107.213 52.5028 105.576 60.9284C104.899 64.4 103.761 67.6277 102.153 70.5034C100.543 73.3813 98.4419 76.0682 95.8503 78.4519V78.4519ZM141.045 84.7462L147.155 54.1654C147.85 50.5856 147.596 47.9262 146.389 46.6262C145.18 45.3241 142.61 44.4525 138.68 44.4525H126.401L118.489 84.7462H103.127L116.943 14.7624H132.306L128.632 33.8489H142.317C150.93 33.8489 156.868 35.5773 160.136 38.5802C163.404 41.5831 164.384 45.6973 163.077 52.4243L156.649 84.7462H141.045ZM226.423 61.0408C225.749 64.5124 224.608 67.685 223.003 70.5586C221.395 73.4364 219.296 76.0682 216.702 78.4519C213.61 81.3446 210.174 82.5386 206.395 83.7686C202.616 85.0007 197.8 84.7462 191.949 84.7462H178.688L175.015 105.953H159.531L173.346 33.8489H203.123C212.081 33.8489 218.615 36.4255 222.72 41.1272C226.824 45.8288 228.06 52.6173 226.423 61.0408V61.0408ZM197.255 44.4525H186.649L180.866 74.1426H190.286C196.525 74.1426 201.178 73.5276 204.232 71.1736C207.29 68.8238 209.349 65.1762 210.42 59.6772C211.447 54.3944 210.98 50.2739 209.021 48.1022C207.059 45.9306 203.138 44.4525 197.255 44.4525V44.4525ZM76.4054 44.4525H65.7976L60.0143 74.1426H69.4325C75.6738 74.1426 80.3245 73.5276 83.3805 71.1736C86.4364 68.8238 88.4978 65.1762 89.5666 59.6772C90.5931 54.3944 90.1265 50.2739 88.167 48.1022C86.2074 45.9306 82.2883 44.4525 76.4054 44.4525Z" fill="#6181B6"/>
</svg>
