<svg width="260" height="231" viewBox="0 0 260 231" fill="none" xmlns="http://www.w3.org/2000/svg">
<path d="M213.054 74.7254C210.366 73.8001 207.581 72.9247 204.713 72.0967C205.184 70.1729 205.617 68.274 206.001 66.4073C212.316 35.7564 208.187 11.0638 194.089 2.9339C180.571 -4.86156 158.464 3.26645 136.136 22.6977C133.989 24.5662 131.836 26.5444 129.683 28.6177C128.249 27.246 126.818 25.9204 125.39 24.6524C101.989 3.87529 78.5344 -4.88047 64.4503 3.27291C50.9452 11.091 46.9457 34.3044 52.6296 63.3525C53.1785 66.1582 53.8201 69.0235 54.5456 71.9367C51.2261 72.879 48.0213 73.8836 44.955 74.9523C17.5208 84.5171 0 99.5075 0 115.056C0 131.115 18.8085 147.223 47.3834 156.99C49.6385 157.761 51.9783 158.489 54.3897 159.181C53.607 162.332 52.9262 165.419 52.3547 168.431C46.9351 196.975 51.1675 219.64 64.6367 227.409C78.5491 235.431 101.898 227.185 124.634 207.311C126.431 205.74 128.235 204.074 130.041 202.328C132.383 204.583 134.721 206.717 137.047 208.719C159.069 227.67 180.82 235.322 194.277 227.532C208.175 219.486 212.692 195.138 206.828 165.515C206.38 163.253 205.859 160.942 205.274 158.589C206.913 158.105 208.523 157.604 210.093 157.084C239.799 147.241 259.127 131.33 259.127 115.056C259.127 99.4512 241.041 84.3598 213.054 74.7254V74.7254ZM206.611 146.576C205.194 147.045 203.74 147.499 202.259 147.938C198.98 137.556 194.553 126.516 189.137 115.11C194.306 103.976 198.561 93.0773 201.748 82.7625C204.399 83.5296 206.972 84.3386 209.451 85.1923C233.43 93.4472 248.057 105.652 248.057 115.056C248.057 125.074 232.261 138.077 206.611 146.576V146.576ZM195.969 167.665C198.562 180.764 198.932 192.607 197.214 201.865C195.671 210.184 192.567 215.73 188.73 217.952C180.564 222.679 163.1 216.534 144.266 200.327C142.107 198.469 139.932 196.486 137.751 194.386C145.052 186.4 152.349 177.117 159.471 166.807C171.998 165.695 183.833 163.878 194.566 161.397C195.095 163.529 195.564 165.621 195.969 167.665ZM88.3422 217.135C80.3637 219.953 74.0091 220.033 70.1679 217.818C61.9942 213.104 58.5962 194.906 63.2313 170.495C63.7622 167.7 64.3941 164.828 65.1224 161.893C75.7374 164.24 87.4857 165.929 100.043 166.947C107.213 177.036 114.721 186.309 122.287 194.429C120.634 196.025 118.987 197.544 117.35 198.976C107.296 207.764 97.2212 213.999 88.3422 217.135V217.135ZM50.9636 146.515C38.3283 142.196 27.8936 136.584 20.7412 130.459C14.3142 124.955 11.0694 119.49 11.0694 115.056C11.0694 105.621 25.1368 93.5856 48.5988 85.4054C51.4456 84.4128 54.4257 83.4774 57.5183 82.5988C60.7609 93.1465 65.0144 104.174 70.1476 115.326C64.948 126.643 60.634 137.846 57.3597 148.518C55.1549 147.884 53.0189 147.217 50.9636 146.515V146.515ZM63.4933 61.2266C58.6235 36.3389 61.8577 17.5645 69.9963 12.8534C78.6654 7.8346 97.8351 14.9903 118.039 32.9303C119.331 34.077 120.627 35.2771 121.928 36.5188C114.399 44.603 106.959 53.8066 99.853 63.8359C87.6661 64.9655 76.0003 66.78 65.2746 69.2098C64.6002 66.4973 64.0029 63.8322 63.4933 61.2266V61.2266ZM175.269 88.8269C172.705 84.3981 170.073 80.0739 167.389 75.8679C175.657 76.913 183.578 78.3005 191.017 79.9983C188.784 87.1558 186 94.6395 182.724 102.311C180.373 97.8488 177.887 93.3494 175.269 88.8269ZM129.687 44.43C134.793 49.9617 139.906 56.1378 144.936 62.8387C139.868 62.5993 134.737 62.4748 129.563 62.4748C124.439 62.4748 119.346 62.5965 114.309 62.8318C119.344 56.1931 124.501 50.0254 129.687 44.43ZM83.8133 88.9035C81.252 93.3448 78.812 97.8198 76.4985 102.303C73.2748 94.658 70.5171 87.1402 68.2643 79.8811C75.6576 78.2267 83.5416 76.8738 91.7568 75.8485C89.0355 80.0933 86.3815 84.4493 83.8133 88.9026V88.9035ZM91.9934 155.054C83.5056 154.107 75.5031 152.824 68.1117 151.215C70.4004 143.826 73.219 136.148 76.5109 128.338C78.8305 132.818 81.2801 137.295 83.8571 141.746H83.8576C86.4825 146.281 89.202 150.722 91.9934 155.054ZM129.993 186.463C124.747 180.802 119.513 174.541 114.402 167.805C119.364 168 124.422 168.099 129.563 168.099C134.845 168.099 140.066 167.98 145.206 167.752C140.16 174.608 135.065 180.88 129.993 186.463V186.463ZM182.829 127.94C186.293 135.834 189.212 143.473 191.53 150.735C184.017 152.449 175.905 153.83 167.359 154.856C170.049 150.593 172.704 146.194 175.313 141.67C177.953 137.093 180.459 132.508 182.829 127.94ZM165.724 136.14C161.674 143.163 157.515 149.868 153.293 156.196C145.604 156.746 137.66 157.029 129.563 157.029C121.5 157.029 113.656 156.779 106.102 156.289C101.71 149.877 97.4615 143.153 93.4367 136.2H93.4376C89.4234 129.267 85.7288 122.275 82.3811 115.322C85.7279 108.353 89.4128 101.353 93.4039 94.4324L93.403 94.4338C97.4047 87.4944 101.616 80.8027 105.968 74.4311C113.674 73.8485 121.577 73.5446 129.563 73.5446H129.563C137.586 73.5446 145.498 73.8509 153.203 74.4385C157.488 80.7635 161.671 87.4335 165.688 94.3738C169.751 101.392 173.483 108.345 176.859 115.165C173.494 122.101 169.77 129.125 165.724 136.14V136.14ZM188.56 12.5241C197.237 17.5281 200.612 37.7093 195.16 64.1731C194.812 65.8617 194.421 67.5816 193.995 69.3247C183.245 66.8441 171.571 64.9982 159.348 63.8516C152.228 53.7121 144.85 44.4942 137.443 36.5137C139.435 34.5982 141.423 32.7717 143.403 31.048C162.534 14.3995 180.414 7.8263 188.56 12.5241ZM129.563 91.9173C142.343 91.9173 152.703 102.277 152.703 115.056C152.703 127.836 142.343 138.196 129.563 138.196C116.784 138.196 106.424 127.836 106.424 115.056C106.424 102.277 116.784 91.9173 129.563 91.9173Z" fill="#00D8FF"/>
</svg>
